<?xml version="1.0" encoding="UTF-8" standalone="no"?><svg xmlns="http://www.w3.org/2000/svg" xmlns:xlink="http://www.w3.org/1999/xlink" contentScriptType="application/ecmascript" contentStyleType="text/css" height="367px" preserveAspectRatio="none" style="width:481px;height:367px;background:#FFFFFF;" version="1.1" viewBox="0 0 481 367" width="481px" zoomAndPan="magnify"><defs><filter height="300%" id="f1e05kfmb184u4" width="300%" x="-1" y="-1"><feGaussianBlur result="blurOut" stdDeviation="2.0"/><feColorMatrix in="blurOut" result="blurOut2" type="matrix" values="0 0 0 0 0 0 0 0 0 0 0 0 0 0 0 0 0 0 .4 0"/><feOffset dx="4.0" dy="4.0" in="blurOut2" result="blurOut3"/><feBlend in="SourceGraphic" in2="blurOut3" mode="normal"/></filter></defs><g><!--MD5=[6573c5247ea1e7246febf33d0b7d6be9]
cluster psr.event--><polygon fill="#FFFFFF" filter="url(#f1e05kfmb184u4)" points="16,6,87,6,94,28.4883,464,28.4883,464,360,16,360,16,6" style="stroke:#000000;stroke-width:1.5;"/><line style="stroke:#000000;stroke-width:1.5;" x1="16" x2="94" y1="28.4883" y2="28.4883"/><text fill="#000000" font-family="sans-serif" font-size="14" font-weight="bold" lengthAdjust="spacing" textLength="65" x="20" y="21.5352">psr.event</text><!--MD5=[1ef213d646caeb3d32ff9361f84f27d7]
class EventDispatcherInterface--><rect codeLine="11" fill="#EBEBEB" filter="url(#f1e05kfmb184u4)" height="60.9551" id="EventDispatcherInterface" style="stroke:#333333;stroke-width:1.5;" width="202" x="139" y="162"/><ellipse cx="166.15" cy="178" fill="#B4A7E5" rx="11" ry="11" style="stroke:#333333;stroke-width:1.0;"/><path d="M162.0777,173.7651 L162.0777,171.6069 L169.4571,171.6069 L169.4571,173.7651 L166.9918,173.7651 L166.9918,181.8418 L169.4571,181.8418 L169.4571,184 L162.0777,184 L162.0777,181.8418 L164.5431,181.8418 L164.5431,173.7651 Z " fill="#000000"/><text fill="#000000" font-family="sans-serif" font-size="12" font-style="italic" lengthAdjust="spacing" textLength="143" x="182.85" y="182.5352">EventDispatcherInterface</text><line style="stroke:#333333;stroke-width:1.5;" x1="140" x2="340" y1="194" y2="194"/><line style="stroke:#333333;stroke-width:1.5;" x1="140" x2="340" y1="202" y2="202"/><ellipse cx="150" cy="213" fill="#84BE84" rx="3" ry="3" style="stroke:#038048;stroke-width:1.0;"/><text fill="#000000" font-family="sans-serif" font-size="11" lengthAdjust="spacing" textLength="176" x="159" y="216.6348">dispatch(event: object) -&gt; object</text><!--MD5=[bda661873fe33cf5f4708e46b01409e4]
class ListenerProviderInterface--><rect codeLine="15" fill="#EBEBEB" filter="url(#f1e05kfmb184u4)" height="60.9551" id="ListenerProviderInterface" style="stroke:#333333;stroke-width:1.5;" width="415" x="32.5" y="41"/><ellipse cx="164.25" cy="57" fill="#B4A7E5" rx="11" ry="11" style="stroke:#333333;stroke-width:1.0;"/><path d="M160.1777,52.7651 L160.1777,50.6069 L167.5571,50.6069 L167.5571,52.7651 L165.0918,52.7651 L165.0918,60.8418 L167.5571,60.8418 L167.5571,63 L160.1777,63 L160.1777,60.8418 L162.6431,60.8418 L162.6431,52.7651 Z " fill="#000000"/><text fill="#000000" font-family="sans-serif" font-size="12" font-style="italic" lengthAdjust="spacing" textLength="143" x="184.75" y="61.5352">ListenerProviderInterface</text><line style="stroke:#333333;stroke-width:1.5;" x1="33.5" x2="446.5" y1="73" y2="73"/><line style="stroke:#333333;stroke-width:1.5;" x1="33.5" x2="446.5" y1="81" y2="81"/><ellipse cx="43.5" cy="92" fill="#84BE84" rx="3" ry="3" style="stroke:#038048;stroke-width:1.0;"/><text fill="#000000" font-family="sans-serif" font-size="11" lengthAdjust="spacing" textLength="389" x="52.5" y="95.6348">get_listeners_for_event(event: object) -&gt; Iterable[Callable[[object], Any]]</text><!--MD5=[915ec9c9e7df11e93218d6b76bdb03e7]
class StoppableEventInterface--><rect codeLine="19" fill="#EBEBEB" filter="url(#f1e05kfmb184u4)" height="60.9551" id="StoppableEventInterface" style="stroke:#333333;stroke-width:1.5;" width="210" x="135" y="283"/><ellipse cx="167.55" cy="299" fill="#B4A7E5" rx="11" ry="11" style="stroke:#333333;stroke-width:1.0;"/><path d="M163.4777,294.7651 L163.4777,292.6069 L170.8571,292.6069 L170.8571,294.7651 L168.3918,294.7651 L168.3918,302.8418 L170.8571,302.8418 L170.8571,305 L163.4777,305 L163.4777,302.8418 L165.9431,302.8418 L165.9431,294.7651 Z " fill="#000000"/><text fill="#000000" font-family="sans-serif" font-size="12" font-style="italic" lengthAdjust="spacing" textLength="139" x="185.45" y="303.5352">StoppableEventInterface</text><line style="stroke:#333333;stroke-width:1.5;" x1="136" x2="344" y1="315" y2="315"/><line style="stroke:#333333;stroke-width:1.5;" x1="136" x2="344" y1="323" y2="323"/><ellipse cx="146" cy="334" fill="#84BE84" rx="3" ry="3" style="stroke:#038048;stroke-width:1.0;"/><text fill="#000000" font-family="sans-serif" font-size="11" lengthAdjust="spacing" textLength="184" x="155" y="337.6348">is_propagation_stopped() -&gt; bool</text><!--MD5=[85aa79043fa018cb606ca5b9264173a5]
link EventDispatcherInterface to StoppableEventInterface--><path codeLine="23" d="M240,223.03 C240,241.38 240,264.64 240,282.98 " fill="none" id="EventDispatcherInterface-StoppableEventInterface" style="stroke:#333333;stroke-width:1.0;"/><polygon fill="#000000" points="160,249.6553,162.9389,240.6102,157.0611,240.6102,160,249.6553" style="stroke:#000000;stroke-width:1.0;"/><text fill="#000000" font-family="sans-serif" font-size="13" lengthAdjust="spacing" textLength="70" x="169" y="249.5684">Dispatches</text><!--MD5=[76ea346e3bcffd60a0d122fa87f1dde8]
link ListenerProviderInterface to EventDispatcherInterface--><path codeLine="24" d="M240,102.03 C240,120.38 240,143.64 240,161.98 " fill="none" id="ListenerProviderInterface-EventDispatcherInterface" style="stroke:#333333;stroke-width:1.0;"/><polygon fill="#000000" points="155,128.6553,157.9389,119.6102,152.0611,119.6102,155,128.6553" style="stroke:#000000;stroke-width:1.0;"/><text fill="#000000" font-family="sans-serif" font-size="13" lengthAdjust="spacing" textLength="75" x="164" y="128.5684">Provides for</text><!--MD5=[9d27e48d609c4c69fd160b26494dc847]
@startuml

skinparam class {
  BackgroundColor #ebebeb
  ArrowColor      #333
  BorderColor     #333
}

skinparam lineType ortho

package psr.event {
  interface EventDispatcherInterface {
    + dispatch(event: object) -> object
  }

  interface ListenerProviderInterface {
    + get_listeners_for_event(event: object) -> Iterable[Callable[[object], Any]]
  }

  interface StoppableEventInterface {
    + is_propagation_stopped() -> bool
  }

  EventDispatcherInterface - - StoppableEventInterface : "Dispatches >"
  ListenerProviderInterface - - EventDispatcherInterface  : "Provides for >"
}

@enduml

PlantUML version 1.2022.0(Tue Jan 11 19:16:42 MSK 2022)
(GPL source distribution)
Java Runtime: OpenJDK Runtime Environment
JVM: OpenJDK 64-Bit Server VM
Default Encoding: UTF-8
Language: ru
Country: RU
--></g></svg>